<?xml version="1.0" encoding="iso-8859-1"?>
<!-- Generator: Adobe Illustrator 16.0.0, SVG Export Plug-In . SVG Version: 6.00 Build 0)  -->
<!DOCTYPE svg PUBLIC "-//W3C//DTD SVG 1.1//EN" "http://www.w3.org/Graphics/SVG/1.1/DTD/svg11.dtd">
<svg version="1.1" id="Capa_1" xmlns="http://www.w3.org/2000/svg" xmlns:xlink="http://www.w3.org/1999/xlink" x="0px" y="0px"
	 width="494.496px" height="494.496px" viewBox="0 0 494.496 494.496" style="enable-background:new 0 0 494.496 494.496;"
	 xml:space="preserve">
<g>
	<g>
		<path d="M182.225,31.265c-41.686-41.686-109.273-41.686-150.96,0c-41.687,41.688-41.687,109.275,0,150.962L312.271,463.23
			c41.687,41.688,109.273,41.688,150.96,0c41.688-41.687,41.688-109.273,0-150.96L182.225,31.265z M170.277,90.704
			c6.906-6.906,18.102-6.908,25.01-0.001c6.905,6.906,6.905,18.103-0.001,25.009c-6.906,6.905-18.102,6.905-25.008,0
			C163.371,108.806,163.371,97.608,170.277,90.704z M50.915,75.926c-6.907-6.908-6.907-18.104,0-25.011
			c6.906-6.905,18.103-6.905,25.009,0.001c6.905,6.905,6.905,18.102,0,25.008C69.018,82.832,57.821,82.832,50.915,75.926z
			 M70.809,135.606c-6.907-6.907-6.907-18.104,0-25.01c6.906-6.907,18.103-6.907,25.01,0c6.905,6.906,6.905,18.103-0.001,25.01
			C88.911,142.512,77.715,142.512,70.809,135.606z M115.711,195.287c-6.906,6.908-18.104,6.908-25.009,0.001
			c-6.907-6.906-6.905-18.103,0.001-25.01c6.906-6.905,18.102-6.906,25.008,0C122.618,177.184,122.618,188.381,115.711,195.287z
			 M110.596,95.819c-6.907-6.907-6.907-18.104,0-25.011c6.905-6.905,18.103-6.905,25.01,0.001c6.906,6.905,6.906,18.103,0,25.008
			C128.699,102.725,117.501,102.726,110.596,95.819z M130.49,155.5c-6.908-6.908-6.906-18.103,0-25.01
			c6.905-6.906,18.102-6.906,25.008,0c6.905,6.907,6.905,18.102,0,25.008C148.592,162.406,137.395,162.406,130.49,155.5z
			 M209.432,319.594l-34.529-34.528c-30.42-30.419-30.42-79.741,0-110.163c30.419-30.419,79.744-30.419,110.163,0l34.527,34.53
			c30.422,30.42,30.421,79.741,0,110.161C289.173,350.015,239.852,350.016,209.432,319.594z M324.22,403.794
			c-6.906,6.906-18.104,6.906-25.01,0.002c-6.905-6.907-6.905-18.104,0.002-25.01c6.905-6.907,18.103-6.907,25.008,0
			C331.125,385.691,331.125,396.888,324.22,403.794z M338.999,364.007c-6.907-6.905-6.907-18.103,0-25.008
			c6.906-6.908,18.103-6.908,25.008-0.002c6.906,6.905,6.906,18.104,0,25.01S345.904,370.912,338.999,364.007z M383.901,423.688
			c-6.906,6.905-18.104,6.905-25.011,0c-6.905-6.906-6.905-18.104-0.001-25.011c6.906-6.905,18.104-6.905,25.012,0
			C390.808,405.585,390.808,416.782,383.901,423.688z M378.786,324.22c-6.905-6.906-6.907-18.103,0-25.01
			c6.906-6.905,18.103-6.905,25.009,0c6.905,6.905,6.905,18.104,0,25.01C396.888,331.125,385.692,331.124,378.786,324.22z
			 M398.679,383.901c-6.905-6.906-6.905-18.104,0-25.011c6.906-6.907,18.104-6.906,25.011,0c6.906,6.905,6.906,18.103,0,25.011
			C416.782,390.809,405.585,390.809,398.679,383.901z M443.581,443.581c-6.906,6.905-18.103,6.905-25.008,0
			c-6.907-6.906-6.907-18.103,0-25.008c6.906-6.907,18.103-6.907,25.009-0.002C450.487,425.479,450.487,436.675,443.581,443.581z"/>
		<path d="M463.231,182.227c41.687-41.687,41.687-109.274,0-150.961s-109.273-41.687-150.961,0L265.437,78.1l150.961,150.961
			L463.231,182.227z"/>
		<path d="M31.266,312.271c-41.688,41.687-41.688,109.273,0,150.96c41.688,41.688,109.275,41.688,150.959,0l46.835-46.834
			L78.099,265.437L31.266,312.271z"/>
	</g>
</g>
<g>
</g>
<g>
</g>
<g>
</g>
<g>
</g>
<g>
</g>
<g>
</g>
<g>
</g>
<g>
</g>
<g>
</g>
<g>
</g>
<g>
</g>
<g>
</g>
<g>
</g>
<g>
</g>
<g>
</g>
</svg>
