<?xml version="1.0" encoding="iso-8859-1"?>
<!-- Generator: Adobe Illustrator 16.0.0, SVG Export Plug-In . SVG Version: 6.00 Build 0)  -->
<!DOCTYPE svg PUBLIC "-//W3C//DTD SVG 1.1//EN" "http://www.w3.org/Graphics/SVG/1.1/DTD/svg11.dtd">
<svg version="1.1" id="Capa_1" xmlns="http://www.w3.org/2000/svg" xmlns:xlink="http://www.w3.org/1999/xlink" x="0px" y="0px"
	 width="521.88px" height="521.88px" viewBox="0 0 521.88 521.88" style="enable-background:new 0 0 521.88 521.88;"
	 xml:space="preserve">
<g>
	<g>
		<g>
			<path d="M345.007,182.926h-7.397c-2.689-10.76-6.726-22.866-13.45-35.644c-22.193-41.697-61.873-64.563-110.967-64.563
				c-49.767,0-89.446,22.866-110.967,64.563c-6.726,13.451-10.761,26.901-13.451,37.662C36.316,194.359,0,236.055,0,290.53
				c0,29.592,11.433,56.492,31.608,76.668c10.761,10.088,27.574,10.088,38.334-0.672c10.088-10.762,10.088-27.574-0.673-38.334
				c-10.088-10.088-15.468-23.539-15.468-38.334c0-32.282,23.539-53.803,58.51-53.803c14.795,0,26.229-11.433,26.901-26.229
				c0-7.397,4.035-74.65,73.306-74.65c29.591,0,50.439,11.433,63.218,34.299c10.76,19.503,12.104,40.352,12.104,40.352
				c0.672,14.123,12.777,25.556,26.9,25.556h30.265c34.971,0,58.51,21.521,58.51,53.802c0,23.539-13.45,42.368-35.645,50.438
				c-14.123,4.709-21.521,20.176-16.813,34.299c4.035,11.435,14.123,18.158,25.557,18.158c2.689,0,6.053-0.672,8.743-1.344
				c43.714-14.797,71.287-54.475,71.287-100.879C457.318,227.985,410.241,182.926,345.007,182.926z"/>
			<path d="M399.481,8.741c-36.316,0-70.616,16.141-94.154,44.387c-7.397,8.743-6.053,21.521,2.689,28.246
				c8.742,7.398,21.521,6.053,28.246-2.69c15.469-18.831,38.334-29.591,63.219-29.591c45.059,0,82.048,36.989,82.048,82.048
				c0,19.503-6.727,38.334-19.503,53.13c-7.398,8.743-6.054,21.521,2.688,28.246c4.035,3.362,8.743,4.708,12.778,4.708
				c6.053,0,11.433-2.69,15.468-7.398c18.831-22.193,28.919-50.439,28.919-79.358C521.881,63.888,466.733,8.741,399.481,8.741z"/>
			<path d="M215.881,328.864c11.433,0,20.176-8.742,20.176-20.176v-18.83c0-11.435-8.743-20.176-20.176-20.176
				c-11.433,0-20.176,8.741-20.176,20.176v18.83C195.705,319.448,204.448,328.864,215.881,328.864z"/>
			<path d="M215.881,363.835c-7.397,0-14.123,2.691-18.831,8.07c-4.708,5.381-8.07,12.104-8.07,18.832
				c0,7.396,2.69,14.123,8.07,18.83c5.38,4.707,12.105,8.07,18.831,8.07c7.398,0,14.123-2.689,18.831-8.07
				c5.38-5.381,8.07-12.105,8.07-18.83c0-6.728-2.69-14.123-8.07-18.832C230.004,367.198,222.606,363.835,215.881,363.835z"/>
			<path d="M215.881,453.282c-11.433,0-20.176,8.742-20.176,20.176v19.502c0,11.435,8.743,20.179,20.176,20.179
				c11.433,0,20.176-8.744,20.176-20.179v-18.83C236.057,462.696,226.642,453.282,215.881,453.282z"/>
			<path d="M293.895,322.812l-16.812,9.416c-9.415,5.379-12.778,18.157-7.397,27.571c4.035,6.728,10.761,10.089,17.485,10.089
				c3.362,0,6.727-0.673,10.088-2.689l16.813-9.416c9.415-5.379,12.777-18.158,7.396-27.572
				C315.415,320.794,303.31,317.431,293.895,322.812z"/>
			<path d="M133.833,414.948l-16.813,9.414c-9.416,5.381-12.778,18.158-7.398,27.574c4.035,6.725,10.761,10.088,17.486,10.088
				c3.363,0,6.725-0.672,10.088-2.689l16.813-9.416c9.415-5.381,12.778-18.158,7.397-27.574
				C156.026,412.931,143.921,409.567,133.833,414.948z"/>
			<path d="M314.07,424.362l-16.813-9.414c-9.415-5.381-22.192-2.018-27.573,7.396c-5.381,9.416-2.018,22.193,7.397,27.574
				l16.812,9.416c3.362,2.019,6.726,2.689,10.089,2.689c6.725,0,13.449-3.363,17.484-10.088
				C326.848,442.521,323.485,429.743,314.07,424.362z"/>
			<path d="M117.692,357.782l16.813,9.416c3.362,2.018,6.725,2.688,10.088,2.688c6.725,0,13.451-3.36,17.486-10.088
				c5.38-9.414,2.018-22.192-7.398-27.571l-16.813-9.416c-9.415-5.382-22.193-2.019-27.573,7.397
				C104.914,339.624,108.277,352.403,117.692,357.782z"/>
		</g>
	</g>
</g>
<g>
</g>
<g>
</g>
<g>
</g>
<g>
</g>
<g>
</g>
<g>
</g>
<g>
</g>
<g>
</g>
<g>
</g>
<g>
</g>
<g>
</g>
<g>
</g>
<g>
</g>
<g>
</g>
<g>
</g>
</svg>
