<?xml version="1.0" encoding="iso-8859-1"?>
<!-- Generator: Adobe Illustrator 16.0.0, SVG Export Plug-In . SVG Version: 6.00 Build 0)  -->
<!DOCTYPE svg PUBLIC "-//W3C//DTD SVG 1.1//EN" "http://www.w3.org/Graphics/SVG/1.1/DTD/svg11.dtd">
<svg version="1.1" id="Capa_1" xmlns="http://www.w3.org/2000/svg" xmlns:xlink="http://www.w3.org/1999/xlink" x="0px" y="0px"
	 width="457.319px" height="457.32px" viewBox="0 0 457.319 457.32" style="enable-background:new 0 0 457.319 457.32;"
	 xml:space="preserve">
<g>
	<g>
		<g>
			<path d="M345.007,121.392h-7.397c-2.689-10.76-6.726-22.866-13.45-35.644c-22.194-41.697-61.874-64.563-110.968-64.563
				c-49.767,0-89.446,22.866-110.967,64.563c-6.726,13.451-10.761,26.901-13.451,37.662C36.316,132.825,0,174.521,0,228.996
				c0,50.439,32.954,92.136,82.721,104.242c14.123,3.363,28.919-5.381,32.281-20.176c3.363-14.123-5.38-28.918-20.176-32.281
				c-24.883-6.053-41.024-26.229-41.024-51.785c0-32.281,23.538-53.802,58.51-53.802c14.795,0,26.229-11.433,26.901-26.229
				c0-7.398,4.035-74.65,73.306-74.65c29.591,0,50.439,11.433,63.218,34.299c10.76,19.503,12.104,40.352,12.104,40.352
				c0.672,14.123,12.778,25.556,26.901,25.556h30.264c34.972,0,58.51,21.521,58.51,53.802c0,26.229-18.157,53.803-58.51,53.803
				c-14.796,0-26.9,12.104-26.9,26.899s12.104,26.9,26.9,26.9c63.891,0,112.312-46.404,112.312-107.604
				C457.318,167.123,410.241,121.392,345.007,121.392z"/>
			<path d="M273.719,290.197h-29.592l36.989-51.785c2.018-3.362,2.689-7.397,0.673-10.761c-2.018-3.363-5.381-5.38-8.743-5.38
				h-73.978c-4.035,0-8.07,2.69-9.416,6.725l-41.024,106.259c-1.345,3.362-0.672,6.725,1.345,9.416
				c2.018,2.688,4.708,4.035,8.07,4.035l0,0h21.521l-28.246,73.977c-2.018,4.709,0,9.416,4.035,12.104
				c1.345,0.675,3.363,1.347,5.38,1.347c2.69,0,5.38-1.347,7.398-3.363l111.641-126.434c2.688-2.691,3.361-7.398,1.345-10.763
				C279.099,292.214,277.081,290.197,273.719,290.197z"/>
		</g>
	</g>
</g>
<g>
</g>
<g>
</g>
<g>
</g>
<g>
</g>
<g>
</g>
<g>
</g>
<g>
</g>
<g>
</g>
<g>
</g>
<g>
</g>
<g>
</g>
<g>
</g>
<g>
</g>
<g>
</g>
<g>
</g>
</svg>
