<?xml version="1.0" encoding="iso-8859-1"?>
<!-- Generator: Adobe Illustrator 16.0.0, SVG Export Plug-In . SVG Version: 6.00 Build 0)  -->
<!DOCTYPE svg PUBLIC "-//W3C//DTD SVG 1.1//EN" "http://www.w3.org/Graphics/SVG/1.1/DTD/svg11.dtd">
<svg version="1.1" id="Capa_1" xmlns="http://www.w3.org/2000/svg" xmlns:xlink="http://www.w3.org/1999/xlink" x="0px" y="0px"
	 width="24px" height="24px" viewBox="0 0 24 24" style="enable-background:new 0 0 24 24;" xml:space="preserve">
<g>
	<path d="M12.696,4.051V3h-2v1.051c-5.046,0.503-9,4.772-9,9.949c0,5.514,4.486,10,10,10c5.516,0,10-4.486,10-10
		C21.696,8.823,17.742,4.554,12.696,4.051z M11.696,22c-4.411,0-8-3.589-8-8s3.589-8,8-8s8,3.589,8,8S16.107,22,11.696,22z
		 M13.696,14c0,1.104-0.896,2-2,2c-1.104,0-2-0.896-2-2c0-0.768,0.438-1.426,1.071-1.761L11.696,6.2l0.931,6.039
		C13.259,12.574,13.696,13.232,13.696,14z M14.696,2h-6V0h6V2z M20.89,7.607l-2.801-2.8l1.414-1.414l2.801,2.8L20.89,7.607z"/>
</g>
<g>
</g>
<g>
</g>
<g>
</g>
<g>
</g>
<g>
</g>
<g>
</g>
<g>
</g>
<g>
</g>
<g>
</g>
<g>
</g>
<g>
</g>
<g>
</g>
<g>
</g>
<g>
</g>
<g>
</g>
</svg>
